<?xml version="1.0" encoding="utf-8"?>
<!-- Generator: Adobe Illustrator 24.3.0, SVG Export Plug-In . SVG Version: 6.00 Build 0)  -->
<svg version="1.1" id="Capa_1" xmlns="http://www.w3.org/2000/svg" xmlns:xlink="http://www.w3.org/1999/xlink" x="0px" y="0px"
	 viewBox="0 0 566.9 85" style="enable-background:new 0 0 566.9 85;" xml:space="preserve">
<style type="text/css">
	.st0{fill:#232C57;stroke:#1D1D1B;stroke-miterlimit:10;}
	.st1{opacity:0.56;fill:#00FC8F; box-shadow:inset  0px -7px 15px rgb(43, 255, 149);transition: 0.5s;}
	.st2{fill:#00FC8F;}
	
</style>
<path class="st0" d="M553.4,85H13.5C6.1,85,0,79,0,71.5v-58C0,6.1,6.1,0,13.5,0h539.9c7.5,0,13.5,6.1,13.5,13.5v58
	C566.9,79,560.9,85,553.4,85z"/>
<path class="st1" d="M553.4,85H436.2l40.2-85h76.9c7.5,0,13.5,6.1,13.5,13.5v58C566.9,79,560.9,85,553.4,85z"/>
<path class="st2" d="M553.4,85h-89.5l33.7-85h55.8c7.5,0,13.5,6.1,13.5,13.5v58C566.9,79,560.9,85,553.4,85z"/>
</svg>
